<svg width="30" height="30" viewBox="0 0 30 30" fill="none" xmlns="http://www.w3.org/2000/svg">
  <path d="M7.7 16.2C7.7 10.35 13.18 6.95 18.35 8.25C23.1 9.45 25.08 14.08 22.72 17.58C19.98 21.65 12.38 21.52 9.38 18.88C7.48 17.2 7.7 16.2 7.7 16.2Z" fill="#E8DEFF"/>
  <path d="M8.25 15.98C8.25 10.72 13.16 7.7 17.92 8.86C22.24 9.92 24.1 14.02 21.93 17.08C19.42 20.63 12.48 20.48 9.78 18.13C8.32 16.86 8.25 15.98 8.25 15.98Z" stroke="#7C4DFF" stroke-width="2.15" stroke-linecap="round" stroke-linejoin="round"/>
  <path d="M19.2 20.2L22.6 23.6" stroke="#7C4DFF" stroke-width="2.15" stroke-linecap="round"/>
  <circle cx="22.85" cy="23.85" r="2.2" fill="#7C4DFF"/>
</svg>
